<svg width="14" height="15" viewBox="0 0 14 15" fill="none" xmlns="http://www.w3.org/2000/svg">
<path d="M10.5 1.43792C11.5641 2.0523 12.4478 2.93596 13.0622 4.0001C13.6766 5.06423 14 6.27134 14 7.5001C14 8.72885 13.6765 9.93596 13.0621 11.0001C12.4478 12.0642 11.5641 12.9479 10.4999 13.5622C9.43577 14.1766 8.22865 14.5 6.99989 14.5C5.77112 14.5 4.56401 14.1765 3.49988 13.5621C2.43576 12.9477 1.5521 12.064 0.937744 10.9999C0.323386 9.93574 -3.12128e-05 8.72863 2.25936e-09 7.49987L0.00350008 7.27307C0.0427022 6.06418 0.394483 4.88607 1.02455 3.8536C1.65461 2.82112 2.54146 1.96953 3.59862 1.38184C4.65579 0.794142 5.8472 0.490403 7.0567 0.500231C8.26621 0.51006 9.45252 0.833121 10.5 1.43792ZM7 3.2999C6.81435 3.2999 6.6363 3.37365 6.50502 3.50493C6.37375 3.6362 6.3 3.81425 6.3 3.9999C5.74305 3.9999 5.2089 4.22115 4.81508 4.61497C4.42125 5.00879 4.2 5.54293 4.2 6.09988C4.2 6.65683 4.42125 7.19097 4.81508 7.5848C5.2089 7.97862 5.74305 8.19987 6.3 8.19987V9.59986C6.18391 9.60629 6.06801 9.58427 5.96236 9.53572C5.85671 9.48716 5.76452 9.41354 5.6938 9.32126L5.6462 9.25056C5.55043 9.09611 5.39834 8.98496 5.2221 8.94061C5.04585 8.89626 4.85927 8.9222 4.7018 9.01293C4.54434 9.10367 4.42833 9.25208 4.37832 9.4268C4.3283 9.60152 4.3482 9.78884 4.4338 9.94915C4.61247 10.259 4.86732 10.5181 5.17419 10.7019C5.48107 10.8856 5.82979 10.9879 6.1873 10.9991H6.3C6.29985 11.1707 6.36272 11.3364 6.47667 11.4646C6.59062 11.5929 6.7477 11.6749 6.9181 11.6949L7 11.6998C7.18565 11.6998 7.3637 11.6261 7.49497 11.4948C7.62625 11.3635 7.7 11.1855 7.7 10.9998L7.8232 10.9963C8.36892 10.9648 8.88084 10.7217 9.25018 10.3187C9.61951 9.91575 9.81716 9.38463 9.80112 8.83824C9.78508 8.29184 9.55661 7.77324 9.16427 7.39261C8.77193 7.01199 8.24663 6.79935 7.7 6.79988V5.39989C7.9506 5.39149 8.1697 5.49789 8.3062 5.67849L8.3538 5.74919C8.44957 5.90364 8.60166 6.01479 8.7779 6.05914C8.95415 6.10348 9.14073 6.07755 9.29819 5.98681C9.45566 5.89608 9.57167 5.74766 9.62168 5.57294C9.6717 5.39823 9.6518 5.21091 9.5662 5.05059C9.38762 4.7406 9.1328 4.48137 8.82592 4.29749C8.51904 4.1136 8.17028 4.01117 7.8127 3.9999H7.7C7.7 3.81425 7.62625 3.6362 7.49497 3.50493C7.3637 3.37365 7.18565 3.2999 7 3.2999ZM7.7 8.19987C7.88565 8.19987 8.0637 8.27362 8.19497 8.40489C8.32625 8.53617 8.4 8.71421 8.4 8.89986C8.4 9.08551 8.32625 9.26356 8.19497 9.39483C8.0637 9.52611 7.88565 9.59986 7.7 9.59986V8.19987ZM6.3 5.39989V6.79988C6.11435 6.79988 5.9363 6.72613 5.80503 6.59485C5.67375 6.46358 5.6 6.28553 5.6 6.09988C5.6 5.91423 5.67375 5.73619 5.80503 5.60491C5.9363 5.47364 6.11435 5.39989 6.3 5.39989Z" fill="#998DAA"/>
</svg>
