<svg width="31" height="30" viewBox="0 0 31 30" fill="none" xmlns="http://www.w3.org/2000/svg">
<path d="M26.75 14.0626V25.3126C26.75 25.5612 26.6512 25.7997 26.4754 25.9755C26.2996 26.1513 26.0611 26.2501 25.8125 26.2501H19.25C19.0014 26.2501 18.7629 26.1513 18.5871 25.9755C18.4113 25.7997 18.3125 25.5612 18.3125 25.3126V19.2189C18.3125 19.0945 18.2631 18.9753 18.1752 18.8874C18.0873 18.7995 17.9681 18.7501 17.8438 18.7501H13.1562C13.0319 18.7501 12.9127 18.7995 12.8248 18.8874C12.7369 18.9753 12.6875 19.0945 12.6875 19.2189V25.3126C12.6875 25.5612 12.5887 25.7997 12.4129 25.9755C12.2371 26.1513 11.9986 26.2501 11.75 26.2501H5.1875C4.93886 26.2501 4.7004 26.1513 4.52459 25.9755C4.34877 25.7997 4.25 25.5612 4.25 25.3126V14.0626C4.25023 13.5654 4.44793 13.0887 4.79961 12.7372L14.1746 3.36222C14.5262 3.01085 15.0029 2.81348 15.5 2.81348C15.9971 2.81348 16.4738 3.01085 16.8254 3.36222L26.2004 12.7372C26.5521 13.0887 26.7498 13.5654 26.75 14.0626Z" fill="#9654FF"/>
</svg>
