<svg width="17" height="22" viewBox="0 0 17 22" fill="none" xmlns="http://www.w3.org/2000/svg">
<path d="M4.16667 3.70825H6.25V6.83325H4.16667V3.70825ZM4.16667 10.9999H6.25V16.2083H4.16667V10.9999ZM14.5833 0.593669L2.08333 0.583252C1.5308 0.583252 1.00089 0.802745 0.610194 1.19345C0.219493 1.58415 0 2.11405 0 2.66659V19.3333C0 20.4791 0.9375 21.4166 2.08333 21.4166H14.5833C15.7292 21.4166 16.6667 20.4791 16.6667 19.3333V2.66659C16.6667 1.51034 15.7292 0.593669 14.5833 0.593669ZM14.5833 19.3333H2.08333V9.93742H14.5833V19.3333ZM14.5833 7.87492H2.08333V2.66659H14.5833V7.87492Z" fill="#EE733E"/>
</svg>
