<svg width="13" height="12" viewBox="0 0 13 12" fill="none" xmlns="http://www.w3.org/2000/svg">
<g clip-path="url(#clip0_41_79)">
<path fill-rule="evenodd" clip-rule="evenodd" d="M5.56249 0.75C4.41875 0.75 3.32185 1.20435 2.5131 2.0131C1.70435 2.82185 1.25 3.91875 1.25 5.0625V5.451C1.02198 5.58266 0.832644 5.77201 0.701004 6.00003C0.569364 6.22805 0.500061 6.48671 0.500061 6.75C0.500061 7.01329 0.569364 7.27195 0.701004 7.49997C0.832644 7.72799 1.02198 7.91734 1.25 8.049V9.1875C1.25 9.73451 1.46729 10.2591 1.85409 10.6459C2.24088 11.0327 2.76549 11.25 3.31249 11.25H9.6875C10.2345 11.25 10.7591 11.0327 11.1459 10.6459C11.5327 10.2591 11.75 9.73451 11.75 9.1875V8.049C11.978 7.91734 12.1673 7.72799 12.299 7.49997C12.4306 7.27195 12.4999 7.01329 12.4999 6.75C12.4999 6.48671 12.4306 6.22805 12.299 6.00003C12.1673 5.77201 11.978 5.58266 11.75 5.451V5.0625C11.75 3.91875 11.2956 2.82185 10.4869 2.0131C9.67814 1.20435 8.58124 0.75 7.4375 0.75H5.56249ZM11 6.375H1.99999C1.90054 6.375 1.80516 6.41451 1.73483 6.48483C1.6645 6.55516 1.625 6.65054 1.62499 6.75C1.625 6.84946 1.6645 6.94484 1.73483 7.01517C1.80516 7.08549 1.90054 7.125 1.99999 7.125H11C11.0995 7.125 11.1948 7.08549 11.2652 7.01517C11.3355 6.94484 11.375 6.84946 11.375 6.75C11.375 6.65054 11.3355 6.55516 11.2652 6.48483C11.1948 6.41451 11.0995 6.375 11 6.375ZM10.625 5.25V5.0625C10.625 4.21712 10.2892 3.40637 9.6914 2.8086C9.09363 2.21082 8.28287 1.875 7.4375 1.875H5.56249C4.71712 1.875 3.90636 2.21082 3.30859 2.8086C2.71082 3.40637 2.375 4.21712 2.37499 5.0625V5.25H10.625ZM8.75 8.25H10.625V9.1875C10.625 9.705 10.205 10.125 9.6875 10.125H3.31249C2.795 10.125 2.37499 9.705 2.37499 9.1875V8.25H7.25L8 9L8.75 8.25Z" fill="#EE733E"/>
</g>
<defs>
<clipPath id="clip0_41_79">
<rect width="12" height="12" fill="white" transform="translate(0.5)"/>
</clipPath>
</defs>
</svg>
