<svg width="21" height="21" viewBox="0 0 21 21" fill="none" xmlns="http://www.w3.org/2000/svg">
<path d="M9.625 4.375C9.625 5.34188 8.44987 6.125 7 6.125C5.55013 6.125 4.375 5.34188 4.375 4.375C4.375 3.40812 5.55013 2.625 7 2.625C8.44987 2.625 9.625 3.40812 9.625 4.375ZM9.625 4.375H17.5M3.5 9.625H17.5C17.7321 9.625 17.9546 9.71719 18.1187 9.88128C18.2828 10.0454 18.375 10.2679 18.375 10.5V10.9375C18.375 12.25 16.1726 15.8139 14.875 16.625V17.5C14.875 17.7321 14.7828 17.9546 14.6187 18.1187C14.4546 18.2828 14.2321 18.375 14 18.375H7C6.76794 18.375 6.54538 18.2828 6.38128 18.1187C6.21719 17.9546 6.125 17.7321 6.125 17.5V16.625C4.64887 15.7027 2.625 12.25 2.625 10.9375V10.5C2.625 10.2679 2.71719 10.0454 2.88128 9.88128C3.04538 9.71719 3.26794 9.625 3.5 9.625Z" stroke="#EE733E" stroke-width="2.08333" stroke-linecap="round" stroke-linejoin="round"/>
</svg>
