<svg width="13" height="12" viewBox="0 0 13 12" fill="none" xmlns="http://www.w3.org/2000/svg">
<path d="M9 1.66995C9.7601 2.10879 10.3913 2.73998 10.8301 3.50009C11.269 4.26019 11.5 5.12242 11.5 6.0001C11.5 6.87779 11.269 7.74002 10.8301 8.50011C10.3913 9.26021 9.76005 9.8914 8.99994 10.3302C8.23984 10.7691 7.37761 11.0001 6.49992 11.0001C5.62223 11.0001 4.76001 10.769 3.99992 10.3302C3.23982 9.89129 2.60864 9.26009 2.16982 8.49998C1.73099 7.73987 1.49998 6.87763 1.5 5.99995L1.5025 5.83795C1.5305 4.97444 1.78177 4.13293 2.23182 3.39544C2.68187 2.65796 3.31533 2.04967 4.07045 1.62989C4.82556 1.2101 5.67657 0.993145 6.5405 1.00017C7.40443 1.00719 8.2518 1.23795 9 1.66995ZM6.5 2.99995C6.36739 2.99995 6.24021 3.05262 6.14645 3.14639C6.05268 3.24016 6 3.36734 6 3.49995C5.60217 3.49995 5.22064 3.65798 4.93934 3.93929C4.65803 4.22059 4.5 4.60212 4.5 4.99995C4.5 5.39777 4.65803 5.7793 4.93934 6.06061C5.22064 6.34191 5.60217 6.49995 6 6.49995V7.49995C5.91708 7.50454 5.83429 7.48881 5.75883 7.45413C5.68337 7.41945 5.61752 7.36686 5.567 7.30095L5.533 7.25045C5.46459 7.14012 5.35596 7.06073 5.23007 7.02905C5.10418 6.99737 4.97091 7.0159 4.85843 7.08071C4.74596 7.14552 4.66309 7.25153 4.62737 7.37633C4.59164 7.50113 4.60586 7.63493 4.667 7.74944C4.79462 7.97078 4.97666 8.15584 5.19585 8.2871C5.41505 8.41835 5.66414 8.49145 5.9195 8.49945H6C5.99989 8.622 6.0448 8.74032 6.12619 8.83194C6.20758 8.92357 6.31979 8.98211 6.4415 8.99645L6.5 8.99995C6.63261 8.99995 6.75978 8.94727 6.85355 8.8535C6.94732 8.75973 7 8.63255 7 8.49995L7.088 8.49745C7.4778 8.47492 7.84346 8.30128 8.10727 8.01343C8.37108 7.72558 8.51226 7.34621 8.5008 6.95593C8.48934 6.56564 8.32615 6.19521 8.04591 5.92333C7.76566 5.65146 7.39045 5.49957 7 5.49995V4.49995C7.179 4.49395 7.3355 4.56995 7.433 4.69895L7.467 4.74945C7.53541 4.85977 7.64404 4.93916 7.76993 4.97084C7.89582 5.00252 8.02909 4.98399 8.14157 4.91918C8.25404 4.85437 8.3369 4.74836 8.37263 4.62356C8.40835 4.49876 8.39414 4.36496 8.333 4.25045C8.20544 4.02902 8.02343 3.84385 7.80423 3.71251C7.58503 3.58116 7.33591 3.508 7.0805 3.49995H7C7 3.36734 6.94732 3.24016 6.85355 3.14639C6.75978 3.05262 6.63261 2.99995 6.5 2.99995ZM7 6.49995C7.13261 6.49995 7.25978 6.55262 7.35355 6.64639C7.44732 6.74016 7.5 6.86734 7.5 6.99995C7.5 7.13255 7.44732 7.25973 7.35355 7.3535C7.25978 7.44727 7.13261 7.49995 7 7.49995V6.49995ZM6 4.49995V5.49995C5.86739 5.49995 5.74021 5.44727 5.64645 5.3535C5.55268 5.25973 5.5 5.13255 5.5 4.99995C5.5 4.86734 5.55268 4.74016 5.64645 4.64639C5.74021 4.55262 5.86739 4.49995 6 4.49995Z" fill="#00F48D"/>
</svg>
